<?xml version="1.0" encoding="utf-8"?>
<!-- Generator: Adobe Illustrator 24.0.1, SVG Export Plug-In . SVG Version: 6.00 Build 0)  -->
<svg version="1.1" id="Vrstva_1" xmlns="http://www.w3.org/2000/svg" xmlns:xlink="http://www.w3.org/1999/xlink" x="0px" y="0px"
	 viewBox="0 0 595.28 841.89" style="enable-background:new 0 0 595.28 841.89;" xml:space="preserve">
<style type="text/css">
	.st0{stroke:#000000;stroke-width:0.25;stroke-miterlimit:10;}
	.st1{fill:#FFFFFF;stroke:#5E5E5E;stroke-width:0.25;stroke-miterlimit:10;}
</style>
<g>
	<path class="st0" d="M181.23,350.01c0.1-0.43,0.2-0.85,0.29-1.27c0.08-0.36,0.15-0.73,0.22-1.1c0.07-0.38,0.15-0.75,0.22-1.13
		c0.14-0.69,0.28-1.38,0.42-2.07c0.08-0.37,0.16-0.73,0.24-1.1c0.13-0.58,0.24-1.16,0.38-1.73c0.18-0.77,0.37-1.55,0.57-2.31
		c0.17-0.65,0.43-1.26,0.74-1.86c0.14-0.28,0.28-0.55,0.5-0.78c0.22-0.24,0.5-0.36,0.8-0.44c0.38-0.1,0.76-0.18,1.16-0.18
		c0.48,0,0.95-0.02,1.43-0.02c0.33,0,0.65,0.02,0.98,0.07c0.46,0.07,0.93,0.14,1.35,0.37c0.18,0.1,0.35,0.23,0.52,0.37
		c0.29,0.24,0.52,0.53,0.73,0.84c0.23,0.34,0.42,0.7,0.56,1.09c0.28,0.73,0.49,1.48,0.67,2.24c0.1,0.4,0.16,0.82,0.23,1.23
		c0.06,0.35,0.1,0.7,0.13,1.05c0.04,0.35,0.06,0.69,0.09,1.04c0.02,0.26,0.03,0.53,0.04,0.79c0.02,0.35,0.03,0.7,0.04,1.05
		c0.02,0.38,0.02,0.76,0.05,1.15c0.02,0.39,0.07,0.78,0.08,1.17c0.01,0.36,0,0.72-0.02,1.07c-0.01,0.33-0.04,0.66-0.06,0.99
		c-0.02,0.24-0.03,0.48-0.04,0.72c-0.03,0.32-0.05,0.63-0.09,0.95c-0.02,0.2-0.05,0.4-0.09,0.6c-0.05,0.28-0.24,0.46-0.45,0.62
		c-0.43,0.32-0.92,0.52-1.42,0.71c-0.37,0.14-0.74,0.24-1.13,0.3c-0.25,0.04-0.51,0.05-0.77,0.07c-0.3,0.02-0.61,0.05-0.91,0.07
		c-0.38,0.02-0.73-0.09-1.09-0.21c-0.26-0.08-0.52-0.19-0.72-0.38c-0.23-0.21-0.41-0.46-0.46-0.8c-0.07-0.41,0.08-0.74,0.35-1.02
		c0.21-0.22,0.48-0.34,0.77-0.42c0.23-0.06,0.46-0.1,0.69-0.16c0.1-0.03,0.2-0.07,0.3-0.11c0.15-0.05,0.18-0.19,0.2-0.32
		c0.03-0.19,0.04-0.38,0.05-0.57c0.01-0.23,0.02-0.47,0.02-0.7c0-0.24-0.01-0.47-0.05-0.71c-0.05-0.32-0.26-0.54-0.56-0.64
		c-0.19-0.07-0.39-0.1-0.59-0.11c-0.34-0.02-0.68-0.02-1.01,0c-0.38,0.02-0.76,0.05-1.14,0.14c-0.17,0.04-0.25,0.16-0.32,0.3
		c-0.17,0.34-0.15,0.7-0.11,1.07c0.04,0.29,0.02,0.58,0.01,0.87c-0.03,0.5-0.28,0.9-0.62,1.25c-0.16,0.16-0.35,0.27-0.56,0.33
		c-0.32,0.1-0.64,0.2-0.96,0.28c-0.18,0.05-0.38,0.06-0.57,0.07c-0.38,0.02-0.75,0.03-1.13,0.02c-0.72-0.02-1.44-0.09-2.12-0.35
		c-0.34-0.13-0.61-0.34-0.82-0.63c-0.11-0.15-0.13-0.35-0.12-0.54c0.02-0.22,0.05-0.44,0.16-0.63c0.14-0.25,0.36-0.4,0.62-0.51
		c0.42-0.18,0.86-0.19,1.3-0.17c0.27,0.01,0.55,0.06,0.82,0.08C181.08,350.01,181.15,350.01,181.23,350.01z M187.28,348.06
		c0.19,0.01,0.39,0.01,0.58,0.03c0.29,0.03,0.58,0.1,0.82,0.28c0.24,0.17,0.43,0.4,0.48,0.7c0.03,0.17,0.06,0.35,0.06,0.53
		c0.01,0.55,0.04,1.1-0.06,1.65c-0.05,0.27-0.16,0.48-0.43,0.6c-0.24,0.11-0.49,0.16-0.75,0.21c-0.35,0.06-0.67,0.17-0.93,0.44
		c-0.11,0.11-0.2,0.23-0.22,0.38c-0.06,0.4,0.14,0.69,0.44,0.91c0.23,0.17,0.5,0.24,0.76,0.32c0.24,0.07,0.48,0.13,0.74,0.11
		c0.28-0.02,0.56-0.04,0.84-0.07c0.32-0.03,0.64-0.06,0.96-0.11c0.56-0.09,1.08-0.33,1.61-0.54c0.17-0.07,0.33-0.19,0.48-0.3
		c0.19-0.13,0.37-0.28,0.41-0.53c0.05-0.32,0.08-0.65,0.11-0.97c0.03-0.34,0.05-0.68,0.07-1.02c0.02-0.28,0.04-0.55,0.05-0.83
		c0.01-0.31,0.02-0.62,0.02-0.92c0-0.24,0.02-0.49-0.01-0.74c-0.05-0.37-0.04-0.74-0.05-1.11c-0.01-0.18-0.02-0.36-0.02-0.55
		c-0.01-0.27-0.01-0.53-0.02-0.8c-0.01-0.25-0.03-0.5-0.04-0.75c-0.02-0.35-0.04-0.7-0.07-1.04c-0.02-0.27-0.03-0.54-0.07-0.8
		c-0.05-0.4-0.1-0.79-0.18-1.19c-0.1-0.51-0.22-1.01-0.35-1.51c-0.08-0.33-0.18-0.65-0.29-0.97c-0.12-0.34-0.23-0.68-0.39-1.01
		c-0.23-0.48-0.55-0.91-0.94-1.29c-0.22-0.21-0.46-0.38-0.74-0.46c-0.38-0.11-0.77-0.19-1.16-0.24c-0.38-0.05-0.76-0.05-1.14-0.06
		c-0.29-0.01-0.59-0.01-0.88,0.01c-0.37,0.02-0.75,0.04-1.11,0.16c-0.17,0.06-0.36,0.1-0.51,0.19c-0.24,0.15-0.41,0.38-0.54,0.63
		c-0.35,0.66-0.63,1.35-0.85,2.07c-0.14,0.45-0.24,0.91-0.35,1.37c-0.07,0.27-0.12,0.54-0.18,0.81c-0.12,0.57-0.25,1.14-0.37,1.72
		c-0.09,0.41-0.18,0.83-0.27,1.24c-0.08,0.36-0.16,0.73-0.24,1.09c-0.09,0.41-0.18,0.81-0.26,1.22c-0.05,0.24-0.09,0.48-0.13,0.72
		c-0.05,0.29-0.09,0.59-0.15,0.88c-0.07,0.34-0.16,0.68-0.24,1.02c-0.07,0.33-0.14,0.66-0.21,0.99c-0.02,0.1-0.11,0.17-0.19,0.16
		c-0.1-0.01-0.15-0.07-0.15-0.2c0-0.06-0.02-0.09-0.08-0.09c-0.05,0-0.1-0.01-0.15-0.02c-0.17-0.01-0.34-0.02-0.5-0.04
		c-0.41-0.05-0.81-0.05-1.21,0.06c-0.28,0.08-0.53,0.23-0.7,0.48c-0.21,0.31-0.1,0.81,0.24,0.99c0.22,0.12,0.46,0.2,0.7,0.28
		c0.6,0.2,1.23,0.22,1.86,0.25c0.29,0.01,0.59,0,0.88-0.01c0.23-0.01,0.46-0.05,0.69-0.09c0.2-0.04,0.41-0.1,0.61-0.16
		c0.22-0.07,0.44-0.13,0.61-0.28c0.53-0.46,0.66-1.06,0.58-1.72c-0.03-0.24-0.06-0.48-0.05-0.73c0.02-0.32,0.12-0.6,0.29-0.86
		c0.06-0.09,0.15-0.19,0.25-0.23c0.24-0.08,0.49-0.13,0.75-0.16c0.24-0.03,0.49-0.08,0.74-0.05
		C186.9,348.1,187.09,348.07,187.28,348.06z"/>
	<g>
		<path class="st1" d="M188.24,341.14c-0.38-0.02-0.76-0.06-1.14-0.1c-0.25-0.03-0.48-0.05-0.71-0.12
			c-0.17-0.05-0.35-0.14-0.53-0.28c-0.26-0.2-0.38-0.48-0.35-0.79c0.04-0.37,0.2-0.66,0.47-0.85c0.31-0.23,0.66-0.33,0.99-0.42
			c0.48-0.13,0.94-0.19,1.41-0.19l0.24,0c0.45,0,0.89,0.09,1.32,0.28c0.26,0.11,0.57,0.36,0.59,0.93c0.01,0.2,0.02,0.37-0.01,0.54
			c-0.08,0.53-0.53,0.71-0.68,0.76c-0.39,0.15-0.72,0.22-1.04,0.22c-0.07,0-0.13,0.01-0.2,0.01c-0.09,0.01-0.17,0.01-0.26,0.01
			L188.24,341.14z"/>
		<path class="st1" d="M188.5,338.67c0.45-0.02,0.9,0.06,1.33,0.25c0.28,0.12,0.41,0.36,0.42,0.68c0.01,0.16,0.02,0.33-0.01,0.49
			c-0.04,0.3-0.25,0.45-0.5,0.54c-0.3,0.12-0.62,0.2-0.94,0.2c-0.18,0-0.36,0.03-0.54,0.02c-0.38-0.02-0.75-0.06-1.13-0.1
			c-0.22-0.02-0.44-0.05-0.66-0.11c-0.16-0.04-0.31-0.13-0.44-0.24c-0.16-0.12-0.26-0.3-0.24-0.53c0.03-0.27,0.14-0.5,0.36-0.66
			c0.27-0.2,0.58-0.29,0.89-0.38C187.52,338.73,187.99,338.66,188.5,338.67z"/>
	</g>
</g>
</svg>
